<?xml version="1.0" encoding="UTF-8"?> <svg xmlns="http://www.w3.org/2000/svg" width="76" height="76" viewBox="0 0 76 76" fill="none"><rect width="76" height="76" rx="38" fill="#F2F2F2"></rect><g clip-path="url(#clip0_3327_2546)"><path d="M50 22H26C22.6863 22 20 24.6863 20 28V48C20 51.3137 22.6863 54 26 54H50C53.3137 54 56 51.3137 56 48V28C56 24.6863 53.3137 22 50 22Z" stroke="#2C2C2C" stroke-width="2" stroke-linecap="round" stroke-linejoin="round"></path><path d="M32 38C34.2091 38 36 36.2091 36 34C36 31.7909 34.2091 30 32 30C29.7909 30 28 31.7909 28 34C28 36.2091 29.7909 38 32 38Z" stroke="#2C2C2C" stroke-width="2" stroke-linecap="round" stroke-linejoin="round"></path><path d="M44 30H48" stroke="#2C2C2C" stroke-width="2" stroke-linecap="round" stroke-linejoin="round"></path><path d="M44 38H48" stroke="#2C2C2C" stroke-width="2" stroke-linecap="round" stroke-linejoin="round"></path><path d="M28 46H48" stroke="#2C2C2C" stroke-width="2" stroke-linecap="round" stroke-linejoin="round"></path></g><defs><clipPath id="clip0_3327_2546"><rect width="48" height="48" fill="white" transform="translate(14 14)"></rect></clipPath></defs></svg> 